<svg width="65" height="65" viewBox="0 0 65 65" fill="none" xmlns="http://www.w3.org/2000/svg">
<path d="M24.8529 9.55882C24.8529 8.03773 25.4572 6.57893 26.5328 5.50336C27.6083 4.42778 29.0671 3.82353 30.5882 3.82353C32.1093 3.82353 33.5681 4.42778 34.6437 5.50336C35.7193 6.57893 36.3235 8.03773 36.3235 9.55882C36.3235 11.0799 35.7193 12.5387 34.6437 13.6143C33.5681 14.6899 32.1093 15.2941 30.5882 15.2941C29.0671 15.2941 27.6083 14.6899 26.5328 13.6143C25.4572 12.5387 24.8529 11.0799 24.8529 9.55882ZM30.5882 0C28.0531 0 25.6218 1.00709 23.8291 2.79971C22.0365 4.59234 21.0294 7.02367 21.0294 9.55882C21.0294 12.094 22.0365 14.5253 23.8291 16.3179C25.6218 18.1106 28.0531 19.1176 30.5882 19.1176C33.1234 19.1176 35.5547 18.1106 37.3473 16.3179C39.14 14.5253 40.1471 12.094 40.1471 9.55882C40.1471 7.02367 39.14 4.59234 37.3473 2.79971C35.5547 1.00709 33.1234 0 30.5882 0ZM47.7941 11.4706C47.7941 10.4565 48.197 9.484 48.914 8.76695C49.6311 8.04989 50.6036 7.64706 51.6176 7.64706C52.6317 7.64706 53.6042 8.04989 54.3213 8.76695C55.0383 9.484 55.4412 10.4565 55.4412 11.4706C55.4412 12.4847 55.0383 13.4572 54.3213 14.1742C53.6042 14.8913 52.6317 15.2941 51.6176 15.2941C50.6036 15.2941 49.6311 14.8913 48.914 14.1742C48.197 13.4572 47.7941 12.4847 47.7941 11.4706ZM51.6176 3.82353C49.5895 3.82353 47.6445 4.6292 46.2104 6.0633C44.7763 7.4974 43.9706 9.44246 43.9706 11.4706C43.9706 13.4987 44.7763 15.4438 46.2104 16.8779C47.6445 18.312 49.5895 19.1176 51.6176 19.1176C53.6458 19.1176 55.5908 18.312 57.0249 16.8779C58.459 15.4438 59.2647 13.4987 59.2647 11.4706C59.2647 9.44246 58.459 7.4974 57.0249 6.0633C55.5908 4.6292 53.6458 3.82353 51.6176 3.82353ZM9.55882 7.64706C8.54476 7.64706 7.57223 8.04989 6.85518 8.76695C6.13813 9.484 5.73529 10.4565 5.73529 11.4706C5.73529 12.4847 6.13813 13.4572 6.85518 14.1742C7.57223 14.8913 8.54476 15.2941 9.55882 15.2941C10.5729 15.2941 11.5454 14.8913 12.2625 14.1742C12.9795 13.4572 13.3824 12.4847 13.3824 11.4706C13.3824 10.4565 12.9795 9.484 12.2625 8.76695C11.5454 8.04989 10.5729 7.64706 9.55882 7.64706ZM1.91176 11.4706C1.91176 9.44246 2.71743 7.4974 4.15154 6.0633C5.58564 4.6292 7.5307 3.82353 9.55882 3.82353C11.587 3.82353 13.532 4.6292 14.9661 6.0633C16.4002 7.4974 17.2059 9.44246 17.2059 11.4706C17.2059 13.4987 16.4002 15.4438 14.9661 16.8779C13.532 18.312 11.587 19.1176 9.55882 19.1176C7.5307 19.1176 5.58564 18.312 4.15154 16.8779C2.71743 15.4438 1.91176 13.4987 1.91176 11.4706ZM11.4706 49.7059C11.5968 49.7059 11.7268 49.7059 11.8529 49.6982C12.1129 50.9906 12.5068 52.2409 13.0153 53.4262C11.3933 53.6466 9.74287 53.5173 8.17496 53.047C6.60705 52.5767 5.15796 51.7763 3.92506 50.6995C2.69216 49.6227 1.70401 48.2945 1.02701 46.8041C0.350001 45.3138 -0.000178428 43.6958 6.82043e-08 42.0588V27.7206C6.82043e-08 25.0824 2.14118 22.9412 4.77941 22.9412H12.9197C12.1536 24.0848 11.6749 25.3965 11.5241 26.7647H4.77941C4.5259 26.7647 4.28276 26.8654 4.1035 27.0447C3.92424 27.2239 3.82353 27.4671 3.82353 27.7206V42.0588C3.82353 44.087 4.6292 46.032 6.0633 47.4661C7.4974 48.9002 9.44246 49.7059 11.4706 49.7059ZM45.7868 26.7647C45.3432 24.5853 43.4162 22.9412 41.1029 22.9412H20.0735C17.4353 22.9412 15.2941 25.0824 15.2941 27.7206V45.8824C15.2942 47.9713 15.7222 50.038 16.5518 51.9551C17.3813 53.8723 18.5947 55.5992 20.1173 57.0293C21.6399 58.4595 23.4393 59.5625 25.4046 60.2705C27.3698 60.9785 29.4593 61.2764 31.5441 61.1459C30.5551 59.9438 29.7023 58.6358 29.0015 57.2459C26.2602 56.863 23.7499 55.5018 21.9334 53.4134C20.1169 51.325 19.1169 48.6502 19.1176 45.8824V27.7206C19.1176 27.4671 19.2184 27.2239 19.3976 27.0447C19.5769 26.8654 19.82 26.7647 20.0735 26.7647H45.7868ZM49.6524 26.7647H56.3971C56.6506 26.7647 56.8937 26.8654 57.073 27.0447C57.2522 27.2239 57.3529 27.4671 57.3529 27.7206V29.0588C58.7218 29.7585 60.0026 30.6035 61.1765 31.5709V27.7206C61.1765 25.0824 59.0353 22.9412 56.3971 22.9412H48.2568C49.0062 24.0576 49.4994 25.3615 49.6524 26.7647ZM47.7941 30.5882C43.2308 30.5882 38.8545 32.401 35.6277 35.6277C32.401 38.8545 30.5882 43.2308 30.5882 47.7941C30.5882 52.3574 32.401 56.7338 35.6277 59.9605C38.8545 63.1872 43.2308 65 47.7941 65C52.3574 65 56.7338 63.1872 59.9605 59.9605C63.1872 56.7338 65 52.3574 65 47.7941C65 43.2308 63.1872 38.8545 59.9605 35.6277C56.7338 32.401 52.3574 30.5882 47.7941 30.5882ZM47.7941 38.2353C48.3012 38.2353 48.7874 38.4367 49.1459 38.7952C49.5045 39.1538 49.7059 39.64 49.7059 40.1471V45.8824H55.4412C55.9482 45.8824 56.4345 46.0838 56.793 46.4423C57.1515 46.8008 57.3529 47.2871 57.3529 47.7941C57.3529 48.3012 57.1515 48.7874 56.793 49.1459C56.4345 49.5045 55.9482 49.7059 55.4412 49.7059H49.7059V55.4412C49.7059 55.9482 49.5045 56.4345 49.1459 56.793C48.7874 57.1515 48.3012 57.3529 47.7941 57.3529C47.2871 57.3529 46.8008 57.1515 46.4423 56.793C46.0838 56.4345 45.8824 55.9482 45.8824 55.4412V49.7059H40.1471C39.64 49.7059 39.1538 49.5045 38.7952 49.1459C38.4367 48.7874 38.2353 48.3012 38.2353 47.7941C38.2353 47.2871 38.4367 46.8008 38.7952 46.4423C39.1538 46.0838 39.64 45.8824 40.1471 45.8824H45.8824V40.1471C45.8824 39.64 46.0838 39.1538 46.4423 38.7952C46.8008 38.4367 47.2871 38.2353 47.7941 38.2353Z" fill="url(#paint0_linear_602_3480)"/>
<defs>
<linearGradient id="paint0_linear_602_3480" x1="32.5" y1="0" x2="32.5" y2="65" gradientUnits="userSpaceOnUse">
<stop stop-color="#FFC500" stop-opacity="0.63"/>
<stop offset="1" stop-color="#00B0DA" stop-opacity="0.63"/>
</linearGradient>
</defs>
</svg>
