<svg width="37" height="62" viewBox="0 0 37 62" fill="none" xmlns="http://www.w3.org/2000/svg">
<path fill-rule="evenodd" clip-rule="evenodd" d="M15.4167 52.4167V61.6667H21.5833V52.4167H24.6667C27.9377 52.4167 31.0747 51.1173 33.3876 48.8043C35.7006 46.4914 37 43.3544 37 40.0834C37 36.8124 35.7006 33.6753 33.3876 31.3624C31.0747 29.0494 27.9377 27.75 24.6667 27.75H21.5833V15.4167H27.75V21.5833H33.9167V9.25001H21.5833V0H15.4167V9.25001H12.3333C9.06233 9.25001 5.9253 10.5494 3.61235 12.8624C1.2994 15.1753 0 18.3123 0 21.5833C0 24.8544 1.2994 27.9914 3.61235 30.3043C5.9253 32.6173 9.06233 33.9167 12.3333 33.9167H15.4167V46.25H9.25V40.0834H3.08333V52.4167H15.4167ZM21.5833 46.25H24.6667C26.3022 46.25 27.8707 45.6003 29.0272 44.4439C30.1836 43.2874 30.8333 41.7189 30.8333 40.0834C30.8333 38.4479 30.1836 36.8793 29.0272 35.7229C27.8707 34.5664 26.3022 33.9167 24.6667 33.9167H21.5833V46.25ZM15.4167 27.75V15.4167H12.3333C10.6978 15.4167 9.12932 16.0664 7.97284 17.2229C6.81637 18.3793 6.16667 19.9478 6.16667 21.5833C6.16667 23.2189 6.81637 24.7874 7.97284 25.9438C9.12932 27.1003 10.6978 27.75 12.3333 27.75H15.4167Z" fill="url(#paint0_linear_602_3473)"/>
<defs>
<linearGradient id="paint0_linear_602_3473" x1="18.5" y1="0" x2="18.5" y2="61.6667" gradientUnits="userSpaceOnUse">
<stop stop-color="#FFC500" stop-opacity="0.63"/>
<stop offset="1" stop-color="#00B0DA" stop-opacity="0.63"/>
</linearGradient>
</defs>
</svg>
