<svg width="64" height="61" viewBox="0 0 64 61" fill="none" xmlns="http://www.w3.org/2000/svg">
<path d="M30.4737 47.2631L21.3158 42.6842M21.3158 42.6842L3 51.8421V12.1579L21.3158 3M21.3158 42.6842V3M21.3158 3L39.6316 12.1579M39.6316 12.1579L57.9474 3V25.8947M39.6316 12.1579V28.9474M51.8421 45.7368V45.7674M58.3167 52.2115C59.5978 50.9308 60.4702 49.299 60.8238 47.5225C61.1774 45.746 60.9962 43.9045 60.3032 42.2309C59.6101 40.5574 58.4363 39.127 56.9302 38.1206C55.4242 37.1142 53.6535 36.577 51.8421 36.577C50.0307 36.577 48.26 37.1142 46.754 38.1206C45.2479 39.127 44.0741 40.5574 43.3811 42.2309C42.688 43.9045 42.5068 45.746 42.8604 47.5225C43.214 49.299 44.0864 50.9308 45.3675 52.2115C46.6435 53.4905 48.8017 55.4015 51.8421 57.9474C55.0504 55.2305 57.2117 53.3196 58.3167 52.2115Z" stroke="url(#paint0_linear_602_3466)" stroke-width="6" stroke-linecap="round" stroke-linejoin="round"/>
<defs>
<linearGradient id="paint0_linear_602_3466" x1="32" y1="3" x2="32" y2="57.9474" gradientUnits="userSpaceOnUse">
<stop stop-color="#FFC500" stop-opacity="0.63"/>
<stop offset="1" stop-color="#00B0DA" stop-opacity="0.63"/>
</linearGradient>
</defs>
</svg>
